<mxfile host="app.diagrams.net" modified="2021-01-02T09:33:54.338Z" agent="5.0 (Windows NT 10.0; Win64; x64) AppleWebKit/537.36 (KHTML, like Gecko) Chrome/87.0.4280.88 Safari/537.36 Edg/87.0.664.66" etag="Z7g-KBJ06Y5zlNtFzfAX" version="14.1.1" type="github">
  <diagram id="eIctXSnldfPw6syT6bvG" name="Page-1">
    <mxGraphModel dx="868" dy="450" grid="1" gridSize="10" guides="1" tooltips="1" connect="1" arrows="1" fold="1" page="1" pageScale="1" pageWidth="850" pageHeight="1100" math="0" shadow="0">
      <root>
        <mxCell id="0" />
        <mxCell id="1" parent="0" />
        <mxCell id="oFLwx3EJx7vr5nfA1EpI-1" value="Users" style="outlineConnect=0;fontColor=#232F3E;gradientColor=none;strokeColor=#232F3E;fillColor=#ffffff;dashed=0;verticalLabelPosition=bottom;verticalAlign=top;align=center;html=1;fontSize=12;fontStyle=0;aspect=fixed;shape=mxgraph.aws4.resourceIcon;resIcon=mxgraph.aws4.users;" vertex="1" parent="1">
          <mxGeometry x="140" y="100" width="100" height="100" as="geometry" />
        </mxCell>
        <mxCell id="oFLwx3EJx7vr5nfA1EpI-2" value="API Gateway" style="outlineConnect=0;dashed=0;verticalLabelPosition=bottom;verticalAlign=top;align=center;html=1;shape=mxgraph.aws3.api_gateway;gradientColor=none;fillColor=#FF3333;" vertex="1" parent="1">
          <mxGeometry x="360" y="100" width="76.5" height="93" as="geometry" />
        </mxCell>
        <mxCell id="oFLwx3EJx7vr5nfA1EpI-4" value="Application Lambda Function&lt;br&gt;" style="outlineConnect=0;dashed=0;verticalLabelPosition=bottom;verticalAlign=top;align=center;html=1;shape=mxgraph.aws3.lambda;fillColor=#F58534;gradientColor=none;" vertex="1" parent="1">
          <mxGeometry x="570" y="100" width="76.5" height="93" as="geometry" />
        </mxCell>
        <mxCell id="oFLwx3EJx7vr5nfA1EpI-5" value="HTTP Requests" style="edgeStyle=orthogonalEdgeStyle;html=1;endArrow=block;elbow=vertical;startArrow=none;endFill=1;strokeColor=#545B64;rounded=0;" edge="1" parent="1">
          <mxGeometry width="100" relative="1" as="geometry">
            <mxPoint x="250" y="160" as="sourcePoint" />
            <mxPoint x="350" y="160" as="targetPoint" />
          </mxGeometry>
        </mxCell>
        <mxCell id="oFLwx3EJx7vr5nfA1EpI-6" value="Invoke" style="edgeStyle=orthogonalEdgeStyle;html=1;endArrow=block;elbow=vertical;startArrow=none;endFill=1;strokeColor=#545B64;rounded=0;" edge="1" parent="1">
          <mxGeometry width="100" relative="1" as="geometry">
            <mxPoint x="440" y="160" as="sourcePoint" />
            <mxPoint x="560" y="160" as="targetPoint" />
          </mxGeometry>
        </mxCell>
        <mxCell id="oFLwx3EJx7vr5nfA1EpI-7" value="Role" style="outlineConnect=0;fontColor=#232F3E;gradientColor=none;strokeColor=#232F3E;fillColor=#ffffff;dashed=0;verticalLabelPosition=bottom;verticalAlign=top;align=center;html=1;fontSize=12;fontStyle=0;aspect=fixed;shape=mxgraph.aws4.resourceIcon;resIcon=mxgraph.aws4.role;" vertex="1" parent="1">
          <mxGeometry x="578.25" y="340" width="60" height="60" as="geometry" />
        </mxCell>
        <mxCell id="oFLwx3EJx7vr5nfA1EpI-8" value="IAM Assumed Role" style="endArrow=none;dashed=1;html=1;dashPattern=1 3;strokeWidth=2;" edge="1" parent="1" target="oFLwx3EJx7vr5nfA1EpI-7">
          <mxGeometry width="50" height="50" relative="1" as="geometry">
            <mxPoint x="607" y="220" as="sourcePoint" />
            <mxPoint x="550" y="260" as="targetPoint" />
          </mxGeometry>
        </mxCell>
      </root>
    </mxGraphModel>
  </diagram>
</mxfile>
